<svg width="795" height="249" viewBox="0 0 795 249" fill="none" xmlns="http://www.w3.org/2000/svg">
<rect x="1" y="1" width="148" height="247" rx="9" fill="white" stroke="#ECAE59" stroke-width="2"/>
<rect x="216" y="1" width="148" height="247" rx="9" fill="white" stroke="#DF3D35" stroke-width="2"/>
<path d="M156 122.5C154.895 122.5 154 123.395 154 124.5C154 125.605 154.895 126.5 156 126.5V122.5ZM209.914 125.914C210.695 125.133 210.695 123.867 209.914 123.086L197.186 110.358C196.405 109.577 195.139 109.577 194.358 110.358C193.577 111.139 193.577 112.405 194.358 113.186L205.672 124.5L194.358 135.814C193.577 136.595 193.577 137.861 194.358 138.642C195.139 139.423 196.405 139.423 197.186 138.642L209.914 125.914ZM156 126.5H208.5V122.5H156V126.5Z" fill="#ECAE59"/>
<rect x="431" y="1" width="148" height="247" rx="9" fill="white" stroke="#309FB0" stroke-width="2"/>
<rect x="646" y="1" width="148" height="247" rx="9" fill="white" stroke="#89AE47" stroke-width="2"/>
<path d="M40.5828 122.552H60.2388V124.208H40.5828V122.552ZM49.3668 117.896H51.3588V123.248H49.3668V117.896ZM42.9588 106.784H57.8148V113.36H44.9988V117.704H43.0308V111.752H55.8468V108.392H42.9588V106.784ZM43.0308 116.864H58.3188V118.496H43.0308V116.864ZM64.7729 107.48H78.7409V109.088H64.7729V107.48ZM62.6609 122.048H82.2689V123.704H62.6609V122.048ZM77.6849 107.48H79.6289V109.64C79.6289 112.424 79.6289 115.52 78.8129 120.2L76.8209 120.008C77.6849 115.568 77.6849 112.328 77.6849 109.64V107.48ZM100.507 105.2H102.523V121.04H100.507V105.2ZM88.5791 124.76H103.171V126.392H88.5791V124.76ZM88.5791 119.408H90.5471V125.312H88.5791V119.408ZM90.8831 106.688C94.1231 106.688 96.5231 108.896 96.5231 112.04C96.5231 115.16 94.1231 117.392 90.8831 117.392C87.6431 117.392 85.2191 115.16 85.2191 112.04C85.2191 108.896 87.6431 106.688 90.8831 106.688ZM90.8831 108.416C88.7711 108.416 87.1631 109.904 87.1631 112.04C87.1631 114.152 88.7711 115.64 90.8831 115.64C92.9951 115.64 94.6031 114.152 94.6031 112.04C94.6031 109.904 92.9951 108.416 90.8831 108.416Z" fill="#ECAE59"/>
<path d="M262.208 105.152H264.224V126.896H262.208V105.152ZM263.744 113.72H267.776V115.4H263.744V113.72ZM248.456 119.816H250.16C254.168 119.816 256.976 119.672 260.216 119.072L260.432 120.752C257.096 121.376 254.24 121.496 250.16 121.496H248.456V119.816ZM248.456 107.264H258.536V108.896H250.424V120.56H248.456V107.264ZM269.598 116.168H289.278V117.8H269.598V116.168ZM278.574 117.2H280.59V122.192H278.574V117.2ZM272.094 124.736H287.094V126.392H272.094V124.736ZM272.094 120.056H274.086V125.192H272.094V120.056ZM279.414 105.704C283.998 105.704 287.022 107.384 287.022 110.072C287.022 112.76 283.998 114.44 279.414 114.44C274.806 114.44 271.806 112.76 271.806 110.072C271.806 107.384 274.806 105.704 279.414 105.704ZM279.414 107.336C276.102 107.336 273.918 108.392 273.918 110.072C273.918 111.776 276.102 112.808 279.414 112.808C282.726 112.808 284.91 111.776 284.91 110.072C284.91 108.392 282.726 107.336 279.414 107.336ZM291.7 122.552H311.356V124.208H291.7V122.552ZM300.484 117.896H302.476V123.248H300.484V117.896ZM294.076 106.784H308.932V113.36H296.116V117.704H294.148V111.752H306.964V108.392H294.076V106.784ZM294.148 116.864H309.436V118.496H294.148V116.864ZM316.25 115.568H331.154V117.2H316.25V115.568ZM313.778 122.288H333.434V123.944H313.778V122.288ZM316.25 107.168H330.938V108.824H318.242V116.288H316.25V107.168Z" fill="#DF3D35"/>
<path d="M371 122.5C369.895 122.5 369 123.395 369 124.5C369 125.605 369.895 126.5 371 126.5V122.5ZM424.914 125.914C425.695 125.133 425.695 123.867 424.914 123.086L412.186 110.358C411.405 109.577 410.139 109.577 409.358 110.358C408.577 111.139 408.577 112.405 409.358 113.186L420.672 124.5L409.358 135.814C408.577 136.595 408.577 137.861 409.358 138.642C410.139 139.423 411.405 139.423 412.186 138.642L424.914 125.914ZM371 126.5H423.5V122.5H371V126.5Z" fill="#DF3D35"/>
<path d="M710.118 111.152H715.59V112.784H710.118V111.152ZM714.462 105.2H716.454V121.088H714.462V105.2ZM702.606 124.76H717.054V126.392H702.606V124.76ZM702.606 119.696H704.598V125.6H702.606V119.696ZM704.142 107.888H705.774V109.64C705.774 113.576 703.326 116.984 699.702 118.328L698.67 116.744C701.91 115.592 704.142 112.712 704.142 109.64V107.888ZM704.526 107.888H706.134V109.616C706.134 112.424 708.246 115.16 711.39 116.264L710.382 117.824C706.854 116.552 704.526 113.288 704.526 109.616V107.888ZM699.294 106.952H710.886V108.56H699.294V106.952ZM729.484 112.76H731.452V116.816H729.484V112.76ZM729.46 105.512H731.188V106.472C731.188 110.384 727.036 113.168 722.62 113.888L721.852 112.304C725.74 111.776 729.46 109.376 729.46 106.472V105.512ZM729.772 105.512H731.476V106.472C731.476 109.376 735.22 111.776 739.084 112.304L738.34 113.888C733.948 113.144 729.772 110.384 729.772 106.472V105.512ZM720.676 115.952H740.284V117.536H720.676V115.952ZM730.468 119.336C735.124 119.336 737.908 120.68 737.908 123.08C737.908 125.504 735.124 126.824 730.468 126.824C725.812 126.824 723.028 125.504 723.028 123.08C723.028 120.68 725.812 119.336 730.468 119.336ZM730.468 120.872C727.06 120.872 725.044 121.664 725.044 123.08C725.044 124.496 727.06 125.288 730.468 125.288C733.9 125.288 735.892 124.496 735.892 123.08C735.892 121.664 733.9 120.872 730.468 120.872Z" fill="#89AE47"/>
<path d="M471.582 109.088H477.126V110.744H471.582V109.088ZM476.286 105.176H478.278V116.36H476.286V105.176ZM464.31 117.488H478.278V122.672H466.326V125.96H464.382V121.184H476.31V119.072H464.31V117.488ZM464.382 125H479.094V126.584H464.382V125ZM465.846 105.848H467.478V107.888C467.478 111.896 465.078 115.136 461.454 116.432L460.422 114.848C463.686 113.744 465.846 111.032 465.846 107.888V105.848ZM466.182 105.848H467.79V107.888C467.79 110.72 469.974 113.336 473.118 114.368L472.086 115.928C468.582 114.68 466.182 111.56 466.182 107.888V105.848ZM482.5 116.264H502.156V117.896H482.5V116.264ZM491.476 117.272H493.468V122.264H491.476V117.272ZM485.02 106.184H499.612V113.816H485.02V106.184ZM497.644 107.792H486.964V112.208H497.644V107.792ZM484.996 124.76H499.972V126.392H484.996V124.76ZM484.996 120.176H486.964V125.336H484.996V120.176ZM517.126 107.408H518.758V109.16C518.758 113.144 516.358 116.456 512.734 117.752L511.678 116.192C514.966 115.04 517.126 112.256 517.126 109.16V107.408ZM517.486 107.408H519.118V109.136C519.118 112.016 521.206 114.68 524.398 115.76L523.366 117.32C519.79 116.072 517.486 112.88 517.486 109.136V107.408ZM512.302 106.688H523.894V108.32H512.302V106.688ZM526.63 105.176H528.622V118.232H526.63V105.176ZM528.07 110.888H531.838V112.544H528.07V110.888ZM514.534 119.384H528.622V126.872H526.63V121.04H514.534V119.384ZM539.324 106.4H540.98V108.632C540.98 112.832 538.604 116.264 534.884 117.656L533.852 116.024C537.164 114.848 539.324 111.944 539.324 108.632V106.4ZM539.684 106.4H541.316V108.56C541.316 111.632 543.428 114.344 546.596 115.448L545.516 117.008C542.012 115.688 539.684 112.496 539.684 108.56V106.4ZM549.716 105.176H551.708V118.016H549.716V105.176ZM544.58 118.64C549.044 118.64 551.804 120.152 551.804 122.744C551.804 125.336 549.044 126.824 544.58 126.824C540.092 126.824 537.332 125.336 537.332 122.744C537.332 120.152 540.092 118.64 544.58 118.64ZM544.58 120.224C541.316 120.224 539.324 121.16 539.324 122.744C539.324 124.328 541.316 125.264 544.58 125.264C547.844 125.264 549.836 124.328 549.836 122.744C549.836 121.16 547.844 120.224 544.58 120.224ZM545.012 109.76H550.148V111.416H545.012V109.76Z" fill="#309FB0"/>
<path d="M586 122.5C584.895 122.5 584 123.395 584 124.5C584 125.605 584.895 126.5 586 126.5V122.5ZM639.914 125.914C640.695 125.133 640.695 123.867 639.914 123.086L627.186 110.358C626.405 109.577 625.139 109.577 624.358 110.358C623.577 111.139 623.577 112.405 624.358 113.186L635.672 124.5L624.358 135.814C623.577 136.595 623.577 137.861 624.358 138.642C625.139 139.423 626.405 139.423 627.186 138.642L639.914 125.914ZM586 126.5H638.5V122.5H586V126.5Z" fill="#309FB0"/>
<path d="M42 52.5C40.6193 52.5 39.5 53.6193 39.5 55C39.5 56.3807 40.6193 57.5 42 57.5V52.5ZM76.7678 56.7678C77.7441 55.7915 77.7441 54.2085 76.7678 53.2322L60.8579 37.3223C59.8816 36.346 58.2986 36.346 57.3223 37.3223C56.346 38.2986 56.346 39.8816 57.3223 40.8579L71.4645 55L57.3223 69.1421C56.346 70.1184 56.346 71.7014 57.3223 72.6777C58.2986 73.654 59.8816 73.654 60.8579 72.6777L76.7678 56.7678ZM42 57.5L75 57.5V52.5L42 52.5V57.5Z" fill="#ECAE59"/>
<rect x="87" y="27" width="5" height="55" rx="2.5" fill="#ECAE59"/>
<rect x="74" y="27" width="18" height="5" rx="2.5" fill="#ECAE59"/>
<rect x="73" y="77" width="18" height="5" rx="2.5" fill="#ECAE59"/>
<path d="M292.5 32C292.5 30.6193 291.381 29.5 290 29.5C288.619 29.5 287.5 30.6193 287.5 32H292.5ZM288.232 66.7678C289.209 67.7441 290.791 67.7441 291.768 66.7678L307.678 50.8579C308.654 49.8816 308.654 48.2986 307.678 47.3223C306.701 46.346 305.118 46.346 304.142 47.3223L290 61.4645L275.858 47.3223C274.882 46.346 273.299 46.346 272.322 47.3223C271.346 48.2986 271.346 49.8816 272.322 50.8579L288.232 66.7678ZM287.5 32V65H292.5V32H287.5Z" fill="#DF3D35"/>
<rect x="317.5" y="77.5" width="4" height="54" rx="2" transform="rotate(90 317.5 77.5)" fill="#DF3D35" stroke="#DF3D35"/>
<rect x="317.5" y="64.5" width="17" height="4" rx="2" transform="rotate(90 317.5 64.5)" fill="#DF3D35" stroke="#DF3D35"/>
<rect x="267.5" y="63.5" width="17" height="4" rx="2" transform="rotate(90 267.5 63.5)" fill="#DF3D35" stroke="#DF3D35"/>
<path d="M717.5 65C717.5 66.3807 718.619 67.5 720 67.5C721.381 67.5 722.5 66.3807 722.5 65H717.5ZM721.768 30.2322C720.791 29.2559 719.209 29.2559 718.232 30.2322L702.322 46.1421C701.346 47.1184 701.346 48.7014 702.322 49.6777C703.299 50.654 704.882 50.654 705.858 49.6777L720 35.5355L734.142 49.6777C735.118 50.654 736.701 50.654 737.678 49.6777C738.654 48.7014 738.654 47.1184 737.678 46.1421L721.768 30.2322ZM722.5 65V32H717.5V65H722.5Z" fill="#89AE47"/>
<rect x="748" y="77" width="5" height="55" rx="2.5" transform="rotate(90 748 77)" fill="#89AE47"/>
<rect x="748" y="64" width="18" height="5" rx="2.5" transform="rotate(90 748 64)" fill="#89AE47"/>
<rect x="698" y="63" width="18" height="5" rx="2.5" transform="rotate(90 698 63)" fill="#89AE47"/>
<rect x="489" y="81.4912" width="5" height="43" rx="2.5" transform="rotate(-180 489 81.4912)" fill="#309FB0"/>
<rect x="527" y="81.4912" width="43" height="5" rx="2.5" transform="rotate(-180 527 81.4912)" fill="#309FB0"/>
<rect x="503" y="43.4912" width="18" height="5" rx="2.5" transform="rotate(-180 503 43.4912)" fill="#309FB0"/>
<rect x="522" y="81.4912" width="18" height="5" rx="2.5" transform="rotate(-90 522 81.4912)" fill="#309FB0"/>
<path d="M507.345 61.2638C506.646 61.452 505.985 60.8582 506.097 60.1431L507.792 49.3478C507.915 48.5641 508.858 48.2289 509.448 48.7589L518.305 56.7133C518.896 57.2434 518.663 58.2167 517.897 58.4229L507.345 61.2638Z" fill="#309FB0"/>
<rect x="517.384" y="59.2861" width="13.9184" height="19.594" rx="2" transform="rotate(-138.073 517.384 59.2861)" fill="#309FB0"/>
<rect x="531.644" y="43.4072" width="13.9184" height="5.00811" rx="2" transform="rotate(-138.073 531.644 43.4072)" fill="#309FB0"/>
<path d="M29.3866 204.108C29.1106 204.108 28.8616 204.057 28.6396 203.955C28.4176 203.847 28.2406 203.676 28.1086 203.442C27.9826 203.208 27.9196 202.905 27.9196 202.533V197.34H28.7296V202.452C28.7296 202.776 28.7956 203.016 28.9276 203.172C29.0656 203.328 29.2546 203.406 29.4946 203.406C29.6086 203.406 29.7196 203.394 29.8276 203.37C29.9416 203.34 30.0376 203.307 30.1156 203.271L30.3136 203.928C30.2056 203.976 30.0706 204.018 29.9086 204.054C29.7526 204.09 29.5786 204.108 29.3866 204.108ZM32.9151 204.108C32.4711 204.108 32.0721 204.006 31.7181 203.802C31.3641 203.592 31.0851 203.304 30.8811 202.938C30.6831 202.566 30.5841 202.14 30.5841 201.66C30.5841 201.156 30.6861 200.721 30.8901 200.355C31.0941 199.989 31.3731 199.707 31.7271 199.509C32.0811 199.311 32.4771 199.212 32.9151 199.212C33.3531 199.212 33.7461 199.311 34.0941 199.509C34.4481 199.707 34.7271 199.989 34.9311 200.355C35.1411 200.715 35.2461 201.144 35.2461 201.642C35.2461 202.14 35.1441 202.575 34.9401 202.947C34.7361 203.313 34.4571 203.598 34.1031 203.802C33.7551 204.006 33.3591 204.108 32.9151 204.108ZM32.9151 203.388C33.3891 203.388 33.7581 203.229 34.0221 202.911C34.2861 202.587 34.4181 202.17 34.4181 201.66C34.4181 201.348 34.3521 201.063 34.2201 200.805C34.0881 200.541 33.9081 200.331 33.6801 200.175C33.4581 200.013 33.2031 199.932 32.9151 199.932C32.4411 199.932 32.0721 200.088 31.8081 200.4C31.5441 200.712 31.4121 201.126 31.4121 201.642C31.4121 201.954 31.4781 202.245 31.6101 202.515C31.7421 202.779 31.9191 202.992 32.1411 203.154C32.3691 203.31 32.6271 203.388 32.9151 203.388ZM38.213 204.108C37.769 204.108 37.379 204.006 37.043 203.802C36.713 203.592 36.458 203.304 36.278 202.938C36.098 202.566 36.008 202.14 36.008 201.66C36.008 201.21 36.098 200.799 36.278 200.427C36.464 200.055 36.728 199.761 37.07 199.545C37.412 199.323 37.814 199.212 38.276 199.212C38.54 199.212 38.771 199.236 38.969 199.284C39.173 199.332 39.368 199.401 39.554 199.491L39.311 200.175C39.143 200.091 38.981 200.031 38.825 199.995C38.675 199.953 38.507 199.932 38.321 199.932C37.901 199.932 37.547 200.085 37.259 200.391C36.977 200.691 36.836 201.108 36.836 201.642C36.836 201.966 36.896 202.26 37.016 202.524C37.136 202.788 37.301 202.998 37.511 203.154C37.727 203.31 37.979 203.388 38.267 203.388C38.495 203.388 38.69 203.364 38.852 203.316C39.014 203.262 39.188 203.187 39.374 203.091L39.626 203.775C39.44 203.877 39.23 203.958 38.996 204.018C38.768 204.078 38.507 204.108 38.213 204.108ZM42.2713 204.108C41.8813 204.108 41.5273 204.009 41.2093 203.811C40.8913 203.613 40.6363 203.334 40.4443 202.974C40.2583 202.608 40.1653 202.179 40.1653 201.687C40.1653 201.219 40.2583 200.799 40.4443 200.427C40.6363 200.055 40.8973 199.761 41.2273 199.545C41.5633 199.323 41.9473 199.212 42.3793 199.212C42.6493 199.212 42.8923 199.26 43.1083 199.356C43.3303 199.446 43.5223 199.56 43.6843 199.698V199.32H44.4223V202.866C44.4223 203.094 44.4763 203.244 44.5843 203.316C44.6983 203.382 44.8213 203.415 44.9533 203.415L44.7823 204.045C44.2063 204.045 43.8583 203.811 43.7383 203.343C43.6003 203.535 43.4113 203.712 43.1713 203.874C42.9373 204.03 42.6373 204.108 42.2713 204.108ZM42.4513 203.388C42.6793 203.388 42.8953 203.334 43.0993 203.226C43.3033 203.112 43.4743 202.971 43.6123 202.803V200.292C43.4503 200.178 43.2703 200.088 43.0723 200.022C42.8803 199.95 42.6763 199.914 42.4603 199.914C42.1723 199.914 41.9173 199.989 41.6953 200.139C41.4793 200.283 41.3083 200.487 41.1823 200.751C41.0563 201.009 40.9933 201.312 40.9933 201.66C40.9933 201.996 41.0563 202.296 41.1823 202.56C41.3083 202.818 41.4823 203.022 41.7043 203.172C41.9263 203.316 42.1753 203.388 42.4513 203.388ZM47.4569 204.108C47.1809 204.108 46.9319 204.057 46.7099 203.955C46.4879 203.847 46.3109 203.676 46.1789 203.442C46.0529 203.208 45.9899 202.905 45.9899 202.533V197.34H46.7999V202.452C46.7999 202.776 46.8659 203.016 46.9979 203.172C47.1359 203.328 47.3249 203.406 47.5649 203.406C47.6789 203.406 47.7899 203.394 47.8979 203.37C48.0119 203.34 48.1079 203.307 48.1859 203.271L48.3839 203.928C48.2759 203.976 48.1409 204.018 47.9789 204.054C47.8229 204.09 47.6489 204.108 47.4569 204.108ZM52.1703 199.725H53.7093V200.346H52.1703V199.725ZM55.0683 196.566H55.7883V204.702H55.0683V196.566ZM53.4573 196.737H54.1683V204.297H53.4573V196.737ZM50.7033 197.241C51.7563 197.241 52.4403 198.33 52.4403 200.076C52.4403 201.822 51.7563 202.911 50.7033 202.911C49.6503 202.911 48.9753 201.822 48.9753 200.076C48.9753 198.33 49.6503 197.241 50.7033 197.241ZM50.7033 197.934C50.0643 197.934 49.6593 198.762 49.6593 200.076C49.6593 201.39 50.0643 202.218 50.7033 202.218C51.3513 202.218 51.7563 201.39 51.7563 200.076C51.7563 198.762 51.3513 197.934 50.7033 197.934ZM59.8538 203.082H67.2248V203.703H59.8538V203.082ZM63.1478 201.336H63.8948V203.343H63.1478V201.336ZM60.7448 197.169H66.3158V199.635H61.5098V201.264H60.7718V199.032H65.5778V197.772H60.7448V197.169ZM60.7718 200.949H66.5048V201.561H60.7718V200.949ZM68.9251 197.43H74.1631V198.033H68.9251V197.43ZM68.1331 202.893H75.4861V203.514H68.1331V202.893ZM73.7671 197.43H74.4961V198.24C74.4961 199.284 74.4961 200.445 74.1901 202.2L73.4431 202.128C73.7671 200.463 73.7671 199.248 73.7671 198.24V197.43ZM82.3254 196.575H83.0814V202.515H82.3254V196.575ZM77.8524 203.91H83.3244V204.522H77.8524V203.91ZM77.8524 201.903H78.5904V204.117H77.8524V201.903ZM78.7164 197.133C79.9314 197.133 80.8314 197.961 80.8314 199.14C80.8314 200.31 79.9314 201.147 78.7164 201.147C77.5014 201.147 76.5924 200.31 76.5924 199.14C76.5924 197.961 77.5014 197.133 78.7164 197.133ZM78.7164 197.781C77.9244 197.781 77.3214 198.339 77.3214 199.14C77.3214 199.932 77.9244 200.49 78.7164 200.49C79.5084 200.49 80.1114 199.932 80.1114 199.14C80.1114 198.339 79.5084 197.781 78.7164 197.781ZM91.7279 198.672H93.5639V199.293H91.7279V198.672ZM93.3299 196.566H94.0769V201.417H93.3299V196.566ZM91.4039 201.66C93.0779 201.66 94.1129 202.227 94.1129 203.181C94.1129 204.144 93.0779 204.693 91.4039 204.693C89.7209 204.693 88.6859 204.144 88.6859 203.181C88.6859 202.227 89.7209 201.66 91.4039 201.66ZM91.4039 202.245C90.1799 202.245 89.4329 202.587 89.4329 203.181C89.4329 203.766 90.1799 204.108 91.4039 204.108C92.6279 204.108 93.3749 203.766 93.3749 203.181C93.3749 202.587 92.6279 202.245 91.4039 202.245ZM89.4599 197.385H90.0719V198.042C90.0719 199.545 89.1539 200.832 87.8039 201.336L87.4169 200.742C88.6229 200.301 89.4599 199.212 89.4599 198.042V197.385ZM89.6039 197.385H90.2069V198.042C90.2069 199.095 90.9989 200.103 92.1779 200.517L91.7999 201.111C90.4769 200.634 89.6039 199.41 89.6039 198.042V197.385ZM87.6419 197.16H91.9889V197.772H87.6419V197.16ZM95.6692 203.046H103.04V203.667H95.6692V203.046ZM98.9632 201.102H99.7102V203.226H98.9632V201.102ZM96.5332 197.142H97.2712V198.591H101.42V197.142H102.158V201.3H96.5332V197.142ZM97.2712 199.194V200.688H101.42V199.194H97.2712ZM112.596 196.557H113.334V204.711H112.596V196.557ZM110.841 199.527H112.812V200.139H110.841V199.527ZM108.708 197.727H109.311V198.942C109.311 200.697 108.303 202.434 107.016 203.1L106.575 202.506C107.745 201.93 108.708 200.391 108.708 198.942V197.727ZM108.861 197.727H109.455V198.942C109.455 200.301 110.4 201.786 111.579 202.344L111.138 202.929C109.851 202.29 108.861 200.616 108.861 198.942V197.727ZM106.872 197.394H111.3V198.015H106.872V197.394ZM116.924 197.439H117.536V198.096C117.536 199.59 116.636 200.841 115.268 201.336L114.89 200.742C116.114 200.31 116.924 199.257 116.924 198.096V197.439ZM117.059 197.439H117.671V198.087C117.671 199.149 118.445 200.103 119.642 200.499L119.282 201.084C117.923 200.634 117.059 199.473 117.059 198.087V197.439ZM115.115 197.169H119.462V197.781H115.115V197.169ZM120.488 196.566H121.235V201.471H120.488V196.566ZM121.028 198.627H122.441V199.257H121.028V198.627ZM118.643 201.687C120.299 201.687 121.316 202.236 121.316 203.181C121.316 204.135 120.299 204.684 118.643 204.684C116.987 204.684 115.97 204.135 115.97 203.181C115.97 202.236 116.987 201.687 118.643 201.687ZM118.643 202.29C117.437 202.29 116.699 202.614 116.699 203.181C116.699 203.757 117.437 204.099 118.643 204.099C119.849 204.099 120.587 203.757 120.587 203.181C120.587 202.614 119.849 202.29 118.643 202.29Z" fill="black"/>
<path d="M243.621 204.108C243.075 204.108 242.592 203.979 242.172 203.721C241.752 203.457 241.425 203.085 241.191 202.605C240.957 202.119 240.84 201.543 240.84 200.877C240.84 200.235 240.957 199.668 241.191 199.176C241.431 198.678 241.767 198.291 242.199 198.015C242.637 197.733 243.147 197.592 243.729 197.592C244.029 197.592 244.302 197.622 244.548 197.682C244.794 197.736 245.025 197.814 245.241 197.916L244.98 198.636C244.794 198.546 244.602 198.474 244.404 198.42C244.212 198.366 243.984 198.339 243.72 198.339C243.336 198.339 242.991 198.438 242.685 198.636C242.385 198.834 242.148 199.119 241.974 199.491C241.8 199.863 241.713 200.313 241.713 200.841C241.713 201.345 241.797 201.786 241.965 202.164C242.139 202.542 242.376 202.836 242.676 203.046C242.982 203.256 243.33 203.361 243.72 203.361C244.014 203.361 244.269 203.325 244.485 203.253C244.701 203.181 244.911 203.088 245.115 202.974L245.376 203.685C245.154 203.805 244.899 203.907 244.611 203.991C244.329 204.069 243.999 204.108 243.621 204.108ZM250.216 204.108L249.433 202.398C249.235 201.972 248.986 201.669 248.686 201.489C248.386 201.309 248.002 201.219 247.534 201.219H247.399V204H246.544V197.718C246.862 197.688 247.165 197.667 247.453 197.655C247.747 197.637 248.059 197.628 248.389 197.628C249.157 197.628 249.733 197.784 250.117 198.096C250.507 198.408 250.702 198.81 250.702 199.302C250.702 199.74 250.57 200.094 250.306 200.364C250.048 200.628 249.673 200.826 249.181 200.958C249.343 201.03 249.487 201.117 249.613 201.219C249.739 201.315 249.859 201.447 249.973 201.615C250.093 201.777 250.213 201.99 250.333 202.254L251.017 203.73L250.216 204.108ZM247.399 200.499H248.389C248.821 200.499 249.172 200.403 249.442 200.211C249.712 200.019 249.847 199.743 249.847 199.383C249.847 199.083 249.721 198.837 249.469 198.645C249.217 198.447 248.857 198.348 248.389 198.348C248.185 198.348 248.002 198.351 247.84 198.357C247.678 198.363 247.531 198.372 247.399 198.384V200.499ZM252.099 204V197.7H255.834V198.438H252.954V200.364H255.357V201.066H252.954V204H252.099ZM260.171 197.097H265.256V197.7H260.171V197.097ZM259.253 200.589H266.606V201.201H259.253V200.589ZM262.538 200.994H263.285V204.711H262.538V200.994ZM264.905 197.097H265.634V197.799C265.634 198.645 265.634 199.599 265.328 200.976L264.59 200.877C264.905 199.563 264.905 198.618 264.905 197.799V197.097ZM267.533 203.037H274.904V203.658H267.533V203.037ZM270.845 201.066H271.583V203.244H270.845V201.066ZM270.827 197.592H271.457V198.096C271.457 199.761 269.792 201.021 268.19 201.354L267.884 200.76C269.288 200.526 270.827 199.383 270.827 198.096V197.592ZM270.962 197.592H271.592V198.096C271.592 199.383 273.14 200.499 274.562 200.733L274.265 201.327C272.636 201.003 270.962 199.761 270.962 198.096V197.592ZM268.136 197.304H274.283V197.916H268.136V197.304ZM278.933 197.088H282.722V200.418H278.933V197.088ZM282.002 197.691H279.653V199.824H282.002V197.691ZM284.423 196.566H285.17V201.237H284.423V196.566ZM282.218 202.2H282.857V202.353C282.857 203.523 281.408 204.459 279.761 204.675L279.509 204.099C280.922 203.937 282.218 203.163 282.218 202.353V202.2ZM282.326 202.2H282.974V202.353C282.974 203.136 284.234 203.928 285.647 204.099L285.395 204.675C283.739 204.45 282.326 203.496 282.326 202.353V202.2ZM279.833 201.786H285.359V202.371H279.833V201.786ZM282.218 201.003H282.974V202.047H282.218V201.003ZM294.177 204.09L293.475 202.29H290.559L289.857 204.072L289.128 203.775L291.594 197.7H292.53L294.96 203.775L294.177 204.09ZM290.829 201.57H293.196L292.017 198.546L290.829 201.57ZM295.769 204V199.32H296.552V200.103C296.72 199.851 296.933 199.641 297.191 199.473C297.455 199.299 297.767 199.212 298.127 199.212C298.655 199.212 299.048 199.371 299.306 199.689C299.57 200.007 299.702 200.427 299.702 200.949V204H298.892V201.039C298.892 200.703 298.811 200.433 298.649 200.229C298.493 200.025 298.274 199.923 297.992 199.923C297.716 199.923 297.455 200.022 297.209 200.22C296.963 200.412 296.753 200.64 296.579 200.904V204H295.769ZM302.355 204.108C302.001 204.108 301.68 204.063 301.392 203.973C301.11 203.883 300.876 203.766 300.69 203.622L301.032 202.947C301.188 203.079 301.383 203.19 301.617 203.28C301.857 203.364 302.112 203.406 302.382 203.406C302.718 203.406 302.97 203.352 303.138 203.244C303.312 203.13 303.399 202.986 303.399 202.812C303.399 202.686 303.366 202.575 303.3 202.479C303.24 202.383 303.126 202.29 302.958 202.2C302.79 202.104 302.547 202.002 302.229 201.894C301.791 201.744 301.461 201.567 301.239 201.363C301.023 201.153 300.915 200.865 300.915 200.499C300.915 200.139 301.071 199.836 301.383 199.59C301.701 199.338 302.139 199.212 302.697 199.212C302.997 199.212 303.264 199.245 303.498 199.311C303.732 199.371 303.942 199.449 304.128 199.545L303.903 200.211C303.741 200.115 303.555 200.037 303.345 199.977C303.141 199.917 302.913 199.887 302.661 199.887C302.349 199.887 302.112 199.95 301.95 200.076C301.788 200.202 301.707 200.34 301.707 200.49C301.707 200.634 301.77 200.757 301.896 200.859C302.022 200.961 302.268 201.072 302.634 201.192C303.228 201.39 303.642 201.609 303.876 201.849C304.11 202.089 304.227 202.389 304.227 202.749C304.227 203.169 304.056 203.502 303.714 203.748C303.378 203.988 302.925 204.108 302.355 204.108ZM306.286 204L304.81 199.536L305.557 199.275L306.763 203.082L307.861 199.653H308.734L309.805 203.082L311.002 199.275L311.722 199.536L310.237 204H309.346L308.266 200.517L307.177 204H306.286ZM314.455 204.108C313.783 204.108 313.249 203.895 312.853 203.469C312.463 203.037 312.268 202.434 312.268 201.66C312.268 201.192 312.355 200.775 312.529 200.409C312.709 200.037 312.958 199.746 313.276 199.536C313.594 199.32 313.963 199.212 314.383 199.212C314.833 199.212 315.205 199.311 315.499 199.509C315.799 199.701 316.024 199.962 316.174 200.292C316.324 200.622 316.399 200.985 316.399 201.381C316.399 201.591 316.39 201.795 316.372 201.993H313.096C313.15 202.431 313.303 202.773 313.555 203.019C313.807 203.265 314.14 203.388 314.554 203.388C314.824 203.388 315.067 203.361 315.283 203.307C315.499 203.247 315.706 203.172 315.904 203.082L316.093 203.775C315.877 203.871 315.634 203.949 315.364 204.009C315.094 204.075 314.791 204.108 314.455 204.108ZM313.087 201.336H315.652C315.652 200.88 315.538 200.529 315.31 200.283C315.082 200.037 314.767 199.914 314.365 199.914C314.017 199.914 313.729 200.037 313.501 200.283C313.273 200.523 313.135 200.874 313.087 201.336ZM317.478 204V199.32H318.261V200.337C318.339 200.139 318.444 199.956 318.576 199.788C318.708 199.614 318.873 199.476 319.071 199.374C319.269 199.266 319.5 199.212 319.764 199.212C319.854 199.212 319.944 199.218 320.034 199.23C320.124 199.236 320.199 199.248 320.259 199.266L320.016 200.103C319.902 200.055 319.767 200.031 319.611 200.031C319.389 200.031 319.176 200.094 318.972 200.22C318.774 200.346 318.609 200.541 318.477 200.805C318.351 201.069 318.288 201.405 318.288 201.813V204H317.478ZM329.45 196.557H330.188V204.711H329.45V196.557ZM327.695 199.527H329.666V200.139H327.695V199.527ZM325.562 197.727H326.165V198.942C326.165 200.697 325.157 202.434 323.87 203.1L323.429 202.506C324.599 201.93 325.562 200.391 325.562 198.942V197.727ZM325.715 197.727H326.309V198.942C326.309 200.301 327.254 201.786 328.433 202.344L327.992 202.929C326.705 202.29 325.715 200.616 325.715 198.942V197.727ZM323.726 197.394H328.154V198.015H323.726V197.394ZM333.779 197.439H334.391V198.096C334.391 199.59 333.491 200.841 332.123 201.336L331.745 200.742C332.969 200.31 333.779 199.257 333.779 198.096V197.439ZM333.914 197.439H334.526V198.087C334.526 199.149 335.3 200.103 336.497 200.499L336.137 201.084C334.778 200.634 333.914 199.473 333.914 198.087V197.439ZM331.97 197.169H336.317V197.781H331.97V197.169ZM337.343 196.566H338.09V201.471H337.343V196.566ZM337.883 198.627H339.296V199.257H337.883V198.627ZM335.498 201.687C337.154 201.687 338.171 202.236 338.171 203.181C338.171 204.135 337.154 204.684 335.498 204.684C333.842 204.684 332.825 204.135 332.825 203.181C332.825 202.236 333.842 201.687 335.498 201.687ZM335.498 202.29C334.292 202.29 333.554 202.614 333.554 203.181C333.554 203.757 334.292 204.099 335.498 204.099C336.704 204.099 337.442 203.757 337.442 203.181C337.442 202.614 336.704 202.29 335.498 202.29Z" fill="black"/>
<path d="M465.776 207.108C465.5 207.108 465.251 207.057 465.029 206.955C464.807 206.847 464.63 206.676 464.498 206.442C464.372 206.208 464.309 205.905 464.309 205.533V200.34H465.119V205.452C465.119 205.776 465.185 206.016 465.317 206.172C465.455 206.328 465.644 206.406 465.884 206.406C465.998 206.406 466.109 206.394 466.217 206.37C466.331 206.34 466.427 206.307 466.505 206.271L466.703 206.928C466.595 206.976 466.46 207.018 466.298 207.054C466.142 207.09 465.968 207.108 465.776 207.108ZM469.305 207.108C468.861 207.108 468.462 207.006 468.108 206.802C467.754 206.592 467.475 206.304 467.271 205.938C467.073 205.566 466.974 205.14 466.974 204.66C466.974 204.156 467.076 203.721 467.28 203.355C467.484 202.989 467.763 202.707 468.117 202.509C468.471 202.311 468.867 202.212 469.305 202.212C469.743 202.212 470.136 202.311 470.484 202.509C470.838 202.707 471.117 202.989 471.321 203.355C471.531 203.715 471.636 204.144 471.636 204.642C471.636 205.14 471.534 205.575 471.33 205.947C471.126 206.313 470.847 206.598 470.493 206.802C470.145 207.006 469.749 207.108 469.305 207.108ZM469.305 206.388C469.779 206.388 470.148 206.229 470.412 205.911C470.676 205.587 470.808 205.17 470.808 204.66C470.808 204.348 470.742 204.063 470.61 203.805C470.478 203.541 470.298 203.331 470.07 203.175C469.848 203.013 469.593 202.932 469.305 202.932C468.831 202.932 468.462 203.088 468.198 203.4C467.934 203.712 467.802 204.126 467.802 204.642C467.802 204.954 467.868 205.245 468 205.515C468.132 205.779 468.309 205.992 468.531 206.154C468.759 206.31 469.017 206.388 469.305 206.388ZM474.603 207.108C474.159 207.108 473.769 207.006 473.433 206.802C473.103 206.592 472.848 206.304 472.668 205.938C472.488 205.566 472.398 205.14 472.398 204.66C472.398 204.21 472.488 203.799 472.668 203.427C472.854 203.055 473.118 202.761 473.46 202.545C473.802 202.323 474.204 202.212 474.666 202.212C474.93 202.212 475.161 202.236 475.359 202.284C475.563 202.332 475.758 202.401 475.944 202.491L475.701 203.175C475.533 203.091 475.371 203.031 475.215 202.995C475.065 202.953 474.897 202.932 474.711 202.932C474.291 202.932 473.937 203.085 473.649 203.391C473.367 203.691 473.226 204.108 473.226 204.642C473.226 204.966 473.286 205.26 473.406 205.524C473.526 205.788 473.691 205.998 473.901 206.154C474.117 206.31 474.369 206.388 474.657 206.388C474.885 206.388 475.08 206.364 475.242 206.316C475.404 206.262 475.578 206.187 475.764 206.091L476.016 206.775C475.83 206.877 475.62 206.958 475.386 207.018C475.158 207.078 474.897 207.108 474.603 207.108ZM478.661 207.108C478.271 207.108 477.917 207.009 477.599 206.811C477.281 206.613 477.026 206.334 476.834 205.974C476.648 205.608 476.555 205.179 476.555 204.687C476.555 204.219 476.648 203.799 476.834 203.427C477.026 203.055 477.287 202.761 477.617 202.545C477.953 202.323 478.337 202.212 478.769 202.212C479.039 202.212 479.282 202.26 479.498 202.356C479.72 202.446 479.912 202.56 480.074 202.698V202.32H480.812V205.866C480.812 206.094 480.866 206.244 480.974 206.316C481.088 206.382 481.211 206.415 481.343 206.415L481.172 207.045C480.596 207.045 480.248 206.811 480.128 206.343C479.99 206.535 479.801 206.712 479.561 206.874C479.327 207.03 479.027 207.108 478.661 207.108ZM478.841 206.388C479.069 206.388 479.285 206.334 479.489 206.226C479.693 206.112 479.864 205.971 480.002 205.803V203.292C479.84 203.178 479.66 203.088 479.462 203.022C479.27 202.95 479.066 202.914 478.85 202.914C478.562 202.914 478.307 202.989 478.085 203.139C477.869 203.283 477.698 203.487 477.572 203.751C477.446 204.009 477.383 204.312 477.383 204.66C477.383 204.996 477.446 205.296 477.572 205.56C477.698 205.818 477.872 206.022 478.094 206.172C478.316 206.316 478.565 206.388 478.841 206.388ZM483.847 207.108C483.571 207.108 483.322 207.057 483.1 206.955C482.878 206.847 482.701 206.676 482.569 206.442C482.443 206.208 482.38 205.905 482.38 205.533V200.34H483.19V205.452C483.19 205.776 483.256 206.016 483.388 206.172C483.526 206.328 483.715 206.406 483.955 206.406C484.069 206.406 484.18 206.394 484.288 206.37C484.402 206.34 484.498 206.307 484.576 206.271L484.774 206.928C484.666 206.976 484.531 207.018 484.369 207.054C484.213 207.09 484.039 207.108 483.847 207.108ZM488.56 202.725H490.099V203.346H488.56V202.725ZM491.458 199.566H492.178V207.702H491.458V199.566ZM489.847 199.737H490.558V207.297H489.847V199.737ZM487.093 200.241C488.146 200.241 488.83 201.33 488.83 203.076C488.83 204.822 488.146 205.911 487.093 205.911C486.04 205.911 485.365 204.822 485.365 203.076C485.365 201.33 486.04 200.241 487.093 200.241ZM487.093 200.934C486.454 200.934 486.049 201.762 486.049 203.076C486.049 204.39 486.454 205.218 487.093 205.218C487.741 205.218 488.146 204.39 488.146 203.076C488.146 201.762 487.741 200.934 487.093 200.934ZM500.932 207.09L500.23 205.29H497.314L496.612 207.072L495.883 206.775L498.349 200.7H499.285L501.715 206.775L500.932 207.09ZM497.584 204.57H499.951L498.772 201.546L497.584 204.57ZM502.525 207V202.32H503.308V203.103C503.476 202.851 503.689 202.641 503.947 202.473C504.211 202.299 504.523 202.212 504.883 202.212C505.411 202.212 505.804 202.371 506.062 202.689C506.326 203.007 506.458 203.427 506.458 203.949V207H505.648V204.039C505.648 203.703 505.567 203.433 505.405 203.229C505.249 203.025 505.03 202.923 504.748 202.923C504.472 202.923 504.211 203.022 503.965 203.22C503.719 203.412 503.509 203.64 503.335 203.904V207H502.525ZM509.111 207.108C508.757 207.108 508.436 207.063 508.148 206.973C507.866 206.883 507.632 206.766 507.446 206.622L507.788 205.947C507.944 206.079 508.139 206.19 508.373 206.28C508.613 206.364 508.868 206.406 509.138 206.406C509.474 206.406 509.726 206.352 509.894 206.244C510.068 206.13 510.155 205.986 510.155 205.812C510.155 205.686 510.122 205.575 510.056 205.479C509.996 205.383 509.882 205.29 509.714 205.2C509.546 205.104 509.303 205.002 508.985 204.894C508.547 204.744 508.217 204.567 507.995 204.363C507.779 204.153 507.671 203.865 507.671 203.499C507.671 203.139 507.827 202.836 508.139 202.59C508.457 202.338 508.895 202.212 509.453 202.212C509.753 202.212 510.02 202.245 510.254 202.311C510.488 202.371 510.698 202.449 510.884 202.545L510.659 203.211C510.497 203.115 510.311 203.037 510.101 202.977C509.897 202.917 509.669 202.887 509.417 202.887C509.105 202.887 508.868 202.95 508.706 203.076C508.544 203.202 508.463 203.34 508.463 203.49C508.463 203.634 508.526 203.757 508.652 203.859C508.778 203.961 509.024 204.072 509.39 204.192C509.984 204.39 510.398 204.609 510.632 204.849C510.866 205.089 510.983 205.389 510.983 205.749C510.983 206.169 510.812 206.502 510.47 206.748C510.134 206.988 509.681 207.108 509.111 207.108ZM513.042 207L511.566 202.536L512.313 202.275L513.519 206.082L514.617 202.653H515.49L516.561 206.082L517.758 202.275L518.478 202.536L516.993 207H516.102L515.022 203.517L513.933 207H513.042ZM521.211 207.108C520.539 207.108 520.005 206.895 519.609 206.469C519.219 206.037 519.024 205.434 519.024 204.66C519.024 204.192 519.111 203.775 519.285 203.409C519.465 203.037 519.714 202.746 520.032 202.536C520.35 202.32 520.719 202.212 521.139 202.212C521.589 202.212 521.961 202.311 522.255 202.509C522.555 202.701 522.78 202.962 522.93 203.292C523.08 203.622 523.155 203.985 523.155 204.381C523.155 204.591 523.146 204.795 523.128 204.993H519.852C519.906 205.431 520.059 205.773 520.311 206.019C520.563 206.265 520.896 206.388 521.31 206.388C521.58 206.388 521.823 206.361 522.039 206.307C522.255 206.247 522.462 206.172 522.66 206.082L522.849 206.775C522.633 206.871 522.39 206.949 522.12 207.009C521.85 207.075 521.547 207.108 521.211 207.108ZM519.843 204.336H522.408C522.408 203.88 522.294 203.529 522.066 203.283C521.838 203.037 521.523 202.914 521.121 202.914C520.773 202.914 520.485 203.037 520.257 203.283C520.029 203.523 519.891 203.874 519.843 204.336ZM524.234 207V202.32H525.017V203.337C525.095 203.139 525.2 202.956 525.332 202.788C525.464 202.614 525.629 202.476 525.827 202.374C526.025 202.266 526.256 202.212 526.52 202.212C526.61 202.212 526.7 202.218 526.79 202.23C526.88 202.236 526.955 202.248 527.015 202.266L526.772 203.103C526.658 203.055 526.523 203.031 526.367 203.031C526.145 203.031 525.932 203.094 525.728 203.22C525.53 203.346 525.365 203.541 525.233 203.805C525.107 204.069 525.044 204.405 525.044 204.813V207H524.234ZM536.206 199.557H536.944V207.711H536.206V199.557ZM534.451 202.527H536.422V203.139H534.451V202.527ZM532.318 200.727H532.921V201.942C532.921 203.697 531.913 205.434 530.626 206.1L530.185 205.506C531.355 204.93 532.318 203.391 532.318 201.942V200.727ZM532.471 200.727H533.065V201.942C533.065 203.301 534.01 204.786 535.189 205.344L534.748 205.929C533.461 205.29 532.471 203.616 532.471 201.942V200.727ZM530.482 200.394H534.91V201.015H530.482V200.394ZM540.534 200.439H541.146V201.096C541.146 202.59 540.246 203.841 538.878 204.336L538.5 203.742C539.724 203.31 540.534 202.257 540.534 201.096V200.439ZM540.669 200.439H541.281V201.087C541.281 202.149 542.055 203.103 543.252 203.499L542.892 204.084C541.533 203.634 540.669 202.473 540.669 201.087V200.439ZM538.725 200.169H543.072V200.781H538.725V200.169ZM544.098 199.566H544.845V204.471H544.098V199.566ZM544.638 201.627H546.051V202.257H544.638V201.627ZM542.253 204.687C543.909 204.687 544.926 205.236 544.926 206.181C544.926 207.135 543.909 207.684 542.253 207.684C540.597 207.684 539.58 207.135 539.58 206.181C539.58 205.236 540.597 204.687 542.253 204.687ZM542.253 205.29C541.047 205.29 540.309 205.614 540.309 206.181C540.309 206.757 541.047 207.099 542.253 207.099C543.459 207.099 544.197 206.757 544.197 206.181C544.197 205.614 543.459 205.29 542.253 205.29Z" fill="black"/>
<path d="M702.184 190.886H709.537V191.498H702.184V190.886ZM705.496 189.698H706.234V191.201H705.496V189.698ZM703.138 193.91H708.727V194.522H703.138V193.91ZM703.138 192.173H703.885V194.108H703.138V192.173ZM705.865 186.8C707.602 186.8 708.727 187.421 708.727 188.429C708.727 189.446 707.602 190.049 705.865 190.049C704.119 190.049 703.003 189.446 703.003 188.429C703.003 187.421 704.119 186.8 705.865 186.8ZM705.865 187.412C704.587 187.412 703.768 187.799 703.768 188.429C703.768 189.068 704.587 189.446 705.865 189.446C707.143 189.446 707.962 189.068 707.962 188.429C707.962 187.799 707.143 187.412 705.865 187.412ZM715.98 186.557H716.727V194.711H715.98V186.557ZM716.547 189.797H718.059V190.427H716.547V189.797ZM710.796 192.128H711.444C712.974 192.128 714.036 192.074 715.269 191.84L715.35 192.461C714.081 192.686 713.001 192.749 711.444 192.749H710.796V192.128ZM710.778 187.322H714.459V190.238H711.534V192.38H710.796V189.626H713.721V187.934H710.778V187.322ZM724.665 186.575H725.421V192.515H724.665V186.575ZM720.192 193.91H725.664V194.522H720.192V193.91ZM720.192 191.903H720.93V194.117H720.192V191.903ZM721.056 187.133C722.271 187.133 723.171 187.961 723.171 189.14C723.171 190.31 722.271 191.147 721.056 191.147C719.841 191.147 718.932 190.31 718.932 189.14C718.932 187.961 719.841 187.133 721.056 187.133ZM721.056 187.781C720.264 187.781 719.661 188.339 719.661 189.14C719.661 189.932 720.264 190.49 721.056 190.49C721.848 190.49 722.451 189.932 722.451 189.14C722.451 188.339 721.848 187.781 721.056 187.781ZM731.871 187.268H732.483V188.726C732.483 190.598 731.475 192.335 730.143 193.01L729.684 192.398C730.89 191.822 731.871 190.265 731.871 188.726V187.268ZM731.997 187.268H732.609V188.726C732.609 190.211 733.581 191.705 734.787 192.263L734.337 192.857C733.014 192.209 731.997 190.535 731.997 188.726V187.268ZM735.633 186.557H736.38V194.711H735.633V186.557ZM671.968 207.09L671.266 205.29H668.35L667.648 207.072L666.919 206.775L669.385 200.7H670.321L672.751 206.775L671.968 207.09ZM668.62 204.57H670.987L669.808 201.546L668.62 204.57ZM673.56 207V202.32H674.343V203.103C674.511 202.851 674.724 202.641 674.982 202.473C675.246 202.299 675.558 202.212 675.918 202.212C676.446 202.212 676.839 202.371 677.097 202.689C677.361 203.007 677.493 203.427 677.493 203.949V207H676.683V204.039C676.683 203.703 676.602 203.433 676.44 203.229C676.284 203.025 676.065 202.923 675.783 202.923C675.507 202.923 675.246 203.022 675 203.22C674.754 203.412 674.544 203.64 674.37 203.904V207H673.56ZM680.147 207.108C679.793 207.108 679.472 207.063 679.184 206.973C678.902 206.883 678.668 206.766 678.482 206.622L678.824 205.947C678.98 206.079 679.175 206.19 679.409 206.28C679.649 206.364 679.904 206.406 680.174 206.406C680.51 206.406 680.762 206.352 680.93 206.244C681.104 206.13 681.191 205.986 681.191 205.812C681.191 205.686 681.158 205.575 681.092 205.479C681.032 205.383 680.918 205.29 680.75 205.2C680.582 205.104 680.339 205.002 680.021 204.894C679.583 204.744 679.253 204.567 679.031 204.363C678.815 204.153 678.707 203.865 678.707 203.499C678.707 203.139 678.863 202.836 679.175 202.59C679.493 202.338 679.931 202.212 680.489 202.212C680.789 202.212 681.056 202.245 681.29 202.311C681.524 202.371 681.734 202.449 681.92 202.545L681.695 203.211C681.533 203.115 681.347 203.037 681.137 202.977C680.933 202.917 680.705 202.887 680.453 202.887C680.141 202.887 679.904 202.95 679.742 203.076C679.58 203.202 679.499 203.34 679.499 203.49C679.499 203.634 679.562 203.757 679.688 203.859C679.814 203.961 680.06 204.072 680.426 204.192C681.02 204.39 681.434 204.609 681.668 204.849C681.902 205.089 682.019 205.389 682.019 205.749C682.019 206.169 681.848 206.502 681.506 206.748C681.17 206.988 680.717 207.108 680.147 207.108ZM684.077 207L682.601 202.536L683.348 202.275L684.554 206.082L685.652 202.653H686.525L687.596 206.082L688.793 202.275L689.513 202.536L688.028 207H687.137L686.057 203.517L684.968 207H684.077ZM692.246 207.108C691.574 207.108 691.04 206.895 690.644 206.469C690.254 206.037 690.059 205.434 690.059 204.66C690.059 204.192 690.146 203.775 690.32 203.409C690.5 203.037 690.749 202.746 691.067 202.536C691.385 202.32 691.754 202.212 692.174 202.212C692.624 202.212 692.996 202.311 693.29 202.509C693.59 202.701 693.815 202.962 693.965 203.292C694.115 203.622 694.19 203.985 694.19 204.381C694.19 204.591 694.181 204.795 694.163 204.993H690.887C690.941 205.431 691.094 205.773 691.346 206.019C691.598 206.265 691.931 206.388 692.345 206.388C692.615 206.388 692.858 206.361 693.074 206.307C693.29 206.247 693.497 206.172 693.695 206.082L693.884 206.775C693.668 206.871 693.425 206.949 693.155 207.009C692.885 207.075 692.582 207.108 692.246 207.108ZM690.878 204.336H693.443C693.443 203.88 693.329 203.529 693.101 203.283C692.873 203.037 692.558 202.914 692.156 202.914C691.808 202.914 691.52 203.037 691.292 203.283C691.064 203.523 690.926 203.874 690.878 204.336ZM695.269 207V202.32H696.052V203.337C696.13 203.139 696.235 202.956 696.367 202.788C696.499 202.614 696.664 202.476 696.862 202.374C697.06 202.266 697.291 202.212 697.555 202.212C697.645 202.212 697.735 202.218 697.825 202.23C697.915 202.236 697.99 202.248 698.05 202.266L697.807 203.103C697.693 203.055 697.558 203.031 697.402 203.031C697.18 203.031 696.967 203.094 696.763 203.22C696.565 203.346 696.4 203.541 696.268 203.805C696.142 204.069 696.079 204.405 696.079 204.813V207H695.269ZM703.299 200.727H703.893V202.05C703.893 203.742 702.858 205.488 701.589 206.136L701.157 205.542C702.318 204.975 703.299 203.427 703.299 202.05V200.727ZM703.434 200.727H704.028V202.05C704.028 203.337 704.946 204.786 706.125 205.344L705.702 205.938C704.415 205.299 703.434 203.661 703.434 202.05V200.727ZM701.445 200.394H705.828V201.024H701.445V200.394ZM706.791 199.566H707.547V207.702H706.791V199.566ZM707.367 202.851H708.879V203.481H707.367V202.851ZM709.572 203.571H716.925V204.183H709.572V203.571ZM712.875 202.266H713.613V203.823H712.875V202.266ZM710.499 202.032H716.07V202.644H710.499V202.032ZM710.499 199.935H716.007V200.538H711.237V202.392H710.499V199.935ZM713.235 204.768C714.972 204.768 716.025 205.299 716.025 206.226C716.025 207.171 714.972 207.693 713.235 207.693C711.498 207.693 710.445 207.171 710.445 206.226C710.445 205.299 711.498 204.768 713.235 204.768ZM713.235 205.344C711.966 205.344 711.201 205.668 711.201 206.226C711.201 206.793 711.966 207.108 713.235 207.108C714.513 207.108 715.269 206.793 715.269 206.226C715.269 205.668 714.513 205.344 713.235 205.344ZM724.86 201.807H726.912V202.419H724.86V201.807ZM726.489 199.575H727.236V205.533H726.489V199.575ZM722.043 206.91H727.461V207.522H722.043V206.91ZM722.043 205.011H722.79V207.225H722.043V205.011ZM722.619 200.583H723.231V201.24C723.231 202.716 722.313 203.994 720.954 204.498L720.567 203.904C721.782 203.472 722.619 202.392 722.619 201.24V200.583ZM722.763 200.583H723.366V201.231C723.366 202.284 724.158 203.31 725.337 203.724L724.959 204.309C723.636 203.832 722.763 202.608 722.763 201.231V200.583ZM720.801 200.232H725.148V200.835H720.801V200.232ZM732.122 202.41H732.86V203.931H732.122V202.41ZM732.113 199.692H732.761V200.052C732.761 201.519 731.204 202.563 729.548 202.833L729.26 202.239C730.718 202.041 732.113 201.141 732.113 200.052V199.692ZM732.23 199.692H732.869V200.052C732.869 201.141 734.273 202.041 735.722 202.239L735.443 202.833C733.796 202.554 732.23 201.519 732.23 200.052V199.692ZM728.819 203.607H736.172V204.201H728.819V203.607ZM732.491 204.876C734.237 204.876 735.281 205.38 735.281 206.28C735.281 207.189 734.237 207.684 732.491 207.684C730.745 207.684 729.701 207.189 729.701 206.28C729.701 205.38 730.745 204.876 732.491 204.876ZM732.491 205.452C731.213 205.452 730.457 205.749 730.457 206.28C730.457 206.811 731.213 207.108 732.491 207.108C733.778 207.108 734.525 206.811 734.525 206.28C734.525 205.749 733.778 205.452 732.491 205.452ZM740.229 200.088H744.018V203.418H740.229V200.088ZM743.298 200.691H740.949V202.824H743.298V200.691ZM745.719 199.566H746.466V204.237H745.719V199.566ZM743.514 205.2H744.153V205.353C744.153 206.523 742.704 207.459 741.057 207.675L740.805 207.099C742.218 206.937 743.514 206.163 743.514 205.353V205.2ZM743.622 205.2H744.27V205.353C744.27 206.136 745.53 206.928 746.943 207.099L746.691 207.675C745.035 207.45 743.622 206.496 743.622 205.353V205.2ZM741.129 204.786H746.655V205.371H741.129V204.786ZM743.514 204.003H744.27V205.047H743.514V204.003ZM750.783 203.571H758.136V204.183H750.783V203.571ZM754.086 202.266H754.824V203.823H754.086V202.266ZM751.71 202.032H757.281V202.644H751.71V202.032ZM751.71 199.935H757.218V200.538H752.448V202.392H751.71V199.935ZM754.446 204.768C756.183 204.768 757.236 205.299 757.236 206.226C757.236 207.171 756.183 207.693 754.446 207.693C752.709 207.693 751.656 207.171 751.656 206.226C751.656 205.299 752.709 204.768 754.446 204.768ZM754.446 205.344C753.177 205.344 752.412 205.668 752.412 206.226C752.412 206.793 753.177 207.108 754.446 207.108C755.724 207.108 756.48 206.793 756.48 206.226C756.48 205.668 755.724 205.344 754.446 205.344ZM764.985 199.566H765.732V207.702H764.985V199.566ZM762.6 200.439H763.338C763.338 202.797 762.276 204.858 759.558 206.19L759.162 205.587C761.511 204.453 762.6 202.725 762.6 200.565V200.439ZM759.531 200.439H762.924V201.051H759.531V200.439ZM769.448 204.417H770.195V205.74H769.448V204.417ZM772.868 199.566H773.615V207.702H772.868V199.566ZM773.372 203.022H774.875V203.652H773.372V203.022ZM767.351 206.154L767.243 205.533C768.701 205.533 770.69 205.515 772.373 205.272L772.436 205.83C770.681 206.145 768.773 206.154 767.351 206.154ZM767.378 200.547H772.247V201.15H767.378V200.547ZM769.817 201.627C770.951 201.627 771.734 202.221 771.734 203.13C771.734 204.048 770.951 204.633 769.817 204.633C768.683 204.633 767.909 204.048 767.909 203.13C767.909 202.221 768.683 201.627 769.817 201.627ZM769.817 202.203C769.088 202.203 768.611 202.572 768.611 203.13C768.611 203.688 769.088 204.057 769.817 204.057C770.546 204.057 771.032 203.688 771.032 203.13C771.032 202.572 770.546 202.203 769.817 202.203ZM769.448 199.575H770.195V200.952H769.448V199.575Z" fill="black"/>
</svg>
